<?xml version="1.0" standalone="no"?>
<!DOCTYPE svg PUBLIC "-//W3C//DTD SVG 1.1//EN" "http://www.w3.org/Graphics/SVG/1.1/DTD/svg11.dtd" >
<svg xmlns="http://www.w3.org/2000/svg">
<metadata>
This is a custom SVG webfont generated by Font Squirrel.
Copyright   : Copyright  1988 1995 2002 Adobe Systems Incorporated  All Rights Reserved  1981 1995 2002 Heidelberger Druckmaschinen AG All rights reserved
Designer    : AM Cassandre
Foundry URL : httpwwwadobecomtype
</metadata>
<defs>
<font id="PeignotLTStdDemi" horiz-adv-x="1138" >
<font-face units-per-em="2048" ascent="1462" descent="-586" />
<missing-glyph horiz-adv-x="569" />
<glyph unicode=" "  horiz-adv-x="569" />
<glyph unicode="&#x09;" horiz-adv-x="569" />
<glyph unicode="&#xa0;" horiz-adv-x="569" />
<glyph unicode="!" horiz-adv-x="569" d="M158 104q0 49 39 88t88 39t88 -37.5t39 -89t-39 -89.5t-88 -38t-88 38t-39 89zM168 1276q0 41 35 75.5t82 34.5t81.5 -34.5t34.5 -75.5q0 -16 -3 -50t-10 -95.5t-11 -114.5l-66 -750h-53l-65 750q-4 53 -11.5 114.5t-10.5 95.5t-3 50z" />
<glyph unicode="&#x22;" horiz-adv-x="681" d="M139 737v590h135v-590h-135zM408 737v590h135v-590h-135z" />
<glyph unicode="#" d="M92 420l6 102h219l41 289h-211l7 102h217l59 420h117l-60 -420h252l62 420h110l-59 -420h195l-7 -102h-200l-41 -289h190l-6 -102h-199l-57 -420h-115l62 420h-254l-58 -420h-118l61 420h-213zM434 522h250l41 289h-252z" />
<glyph unicode="$" d="M121 995q0 150 122 258.5t312 108.5q35 0 78 -6l18 114h82l-24 -137q145 -53 227 -182l-78 -72q-63 119 -164 162l-80 -459q180 -68 242 -112q141 -102 141 -297q0 -182 -136 -292t-331 -110q-37 0 -55 4l-26 -151h-78l28 170q-172 49 -262 203l86 61q74 -125 193 -166 l84 492q-74 25 -111 40t-97.5 50t-91 72.5t-55 102t-24.5 146.5zM350 1042q0 -90 49.5 -142t139.5 -89l77 449q-12 6 -45 6q-92 0 -156.5 -65t-64.5 -159zM492 74q25 -6 45 -6q102 0 166.5 76.5t64.5 191.5q0 86 -50 135t-143 84z" />
<glyph unicode="%" horiz-adv-x="1820" d="M20 948q0 166 112 275.5t280 109.5q170 0 281.5 -108.5t111.5 -276.5t-111.5 -277.5t-281.5 -109.5q-168 0 -280 109.5t-112 277.5zM215 948q0 -123 46 -217t151 -94q106 0 152 94t46 217q0 76 -15 140.5t-62.5 116.5t-120.5 52q-104 0 -150.5 -94t-46.5 -215zM416 -29 l874 1391h113l-877 -1391h-110zM1016 387q0 166 111.5 275.5t279.5 109.5q170 0 281.5 -108.5t111.5 -276.5t-111.5 -277.5t-281.5 -109.5q-168 0 -279.5 109.5t-111.5 277.5zM1210 387q0 -123 46.5 -217t150.5 -94q106 0 152.5 94t46.5 217q0 76 -15.5 140.5t-62.5 116.5 t-121 52q-104 0 -150.5 -94t-46.5 -215z" />
<glyph unicode="&#x26;" horiz-adv-x="1214" d="M76 451q0 168 67.5 268t225.5 213q-4 6 -29 37.5t-33 44t-23.5 39t-21.5 48t-6 44.5q0 113 84 190.5t199 77.5q117 0 196.5 -66.5t79.5 -183.5q0 -139 -186 -274l344 -498q16 35 16 98q0 72 -26 220h98q41 -119 41 -222q0 -127 -41 -229l188 -258h-235l-66 88 q-147 -125 -375 -125q-203 0 -350 142.5t-147 345.5zM276 436q0 -150 98.5 -252t239.5 -102q82 0 140.5 20.5t132.5 67.5l-420 623q-191 -138 -191 -357zM393 1233l129 -189q43 23 80 70t37 88q0 55 -40 90t-97 35q-39 0 -76 -26.5t-33 -67.5z" />
<glyph unicode="'" horiz-adv-x="454" d="M160 737v590h135v-590h-135z" />
<glyph unicode="(" horiz-adv-x="681" d="M25 477q0 338 138 571.5t425 313.5v-86q-348 -170 -348 -799t348 -796v-87q-287 78 -425 312.5t-138 570.5z" />
<glyph unicode=")" horiz-adv-x="681" d="M94 -319q348 170 348 798.5t-348 796.5v86q287 -78 425 -312.5t138 -570.5q0 -338 -138 -571.5t-425 -313.5v87z" />
<glyph unicode="*" horiz-adv-x="909" d="M86 1010l41 149l291 -147l-47 315h159l-53 -315l301 151l45 -155l-317 -47l221 -234l-137 -94l-137 276l-162 -276l-125 94v4l235 221z" />
<glyph unicode="+" horiz-adv-x="1228" d="M172 381v123h381v381h123v-381h381v-123h-381v-381h-123v381h-381z" />
<glyph unicode="," horiz-adv-x="569" d="M45 -385l133 479q33 121 127 121q47 0 75 -29.5t28 -74.5q0 -39 -33 -84l-309 -412h-21z" />
<glyph unicode="-" horiz-adv-x="681" d="M78 215v174l526 281v-174z" />
<glyph unicode="." horiz-adv-x="569" d="M166 96q0 49 37 84t82 35q47 0 82.5 -35t35.5 -84t-35.5 -84t-82.5 -35q-45 0 -82 36t-37 83z" />
<glyph unicode="/" horiz-adv-x="569" d="M0 -37l442 1401h127l-442 -1401h-127z" />
<glyph unicode="0" d="M33 582q0 143 33.5 277t100 249t180.5 184.5t257 69.5q231 0 366.5 -177t135.5 -431q0 -143 -35 -278.5t-101.5 -250t-180 -184.5t-257.5 -70q-231 0 -365 177.5t-134 433.5zM274 639q0 -80 14.5 -173t45.5 -188.5t88 -158t131 -62.5q96 0 169 89.5t107.5 231.5t34.5 316 q0 80 -15 173.5t-45 188.5t-88.5 157.5t-131.5 62.5q-96 0 -168 -89t-107 -231.5t-35 -316.5z" />
<glyph unicode="1" d="M307 1245v86l377 31v-1362h-215v1255z" />
<glyph unicode="2" d="M129 0l307 426q37 49 104.5 140t97.5 134t68.5 105.5t54 107.5t15.5 86q0 123 -77.5 190.5t-196.5 67.5q-143 0 -203.5 -97t-50.5 -242h-105q-18 201 88.5 322.5t327.5 121.5q188 0 310 -111.5t122 -294.5q0 -29 -7 -61.5t-14 -58t-26.5 -63.5t-29 -57.5t-37 -61.5 t-35.5 -53l-40 -55t-34 -48l-289 -394h531v-104h-881z" />
<glyph unicode="3" d="M258 1229v104h676l-320 -471h74q115 0 174.5 -62.5t59.5 -137.5q0 -20 -4.5 -41t-8.5 -37.5t-16 -40.5l-20 -39q-7 -14 -27.5 -46t-30.5 -45.5t-38.5 -54.5t-41.5 -59l-209 -299h-258l312 449q12 18 34.5 48.5t32.5 45t23.5 37t19.5 35t11.5 26.5t5.5 27q0 35 -28 62.5 t-83 27.5h-305l330 471h-363z" />
<glyph unicode="4" d="M31 440v54l592 839h227v-788h240v-105h-240v-440h-215v440h-604zM186 545h449v631h-4z" />
<glyph unicode="5" d="M252 0l326 459q14 23 39.5 55.5t39 52t28.5 44t22.5 43t7.5 32.5q0 45 -43 69.5t-117 24.5h-287v553h650v-104h-435v-344h174q109 0 191 -47t82 -160q0 -35 -9.5 -70t-33 -75.5t-40 -64.5t-56 -77t-54.5 -74l-221 -317h-264z" />
<glyph unicode="6" d="M141 369q0 127 56.5 284.5t166 378.5t142.5 301h221l-276 -602l4 -4q84 70 227 70q150 0 232.5 -101.5t82.5 -261.5q0 -197 -124.5 -330t-317.5 -133q-186 0 -300 108t-114 290zM356 336q0 -121 47.5 -200t139.5 -79q125 0 182 106.5t57 268.5q0 121 -47 200t-139 79 q-125 0 -182.5 -106.5t-57.5 -268.5z" />
<glyph unicode="7" d="M172 1229v104h885l-563 -1333h-244l528 1229h-606z" />
<glyph unicode="8" d="M119 360q0 143 82 253t223 163v6q-84 2 -135 74t-51 162q0 154 113.5 249t266.5 95q129 0 222.5 -78t93.5 -205q0 -172 -176 -284q262 -72 262 -361q0 -190 -133 -326.5t-344 -136.5q-188 0 -306 109.5t-118 279.5zM360 393q0 -147 47.5 -246.5t153.5 -99.5 q76 0 128 59.5t69.5 128t19.5 142.5q0 147 -48 246.5t-155 99.5q-76 0 -127 -59.5t-68.5 -128t-19.5 -142.5zM442 1040q0 -98 33 -164.5t105 -66.5q78 0 113.5 76t35.5 170q0 98 -32.5 164.5t-104.5 66.5q-80 0 -115 -76t-35 -170z" />
<glyph unicode="9" d="M160 889q0 197 139 335t330 138q162 0 269.5 -109.5t107.5 -281.5q0 -131 -68 -273l-326 -698h-221l260 575q-115 -31 -166 -30q-150 0 -237.5 100.5t-87.5 243.5zM375 922q0 -111 45 -201t145 -90q117 0 171.5 107.5t54.5 248.5q0 68 -16.5 129.5t-61.5 110.5t-115 49 q-117 0 -170 -105.5t-53 -248.5z" />
<glyph unicode=":" horiz-adv-x="569" d="M166 96q0 49 37 84t82 35q47 0 82.5 -35t35.5 -84t-35.5 -84t-82.5 -35q-45 0 -82 36t-37 83zM166 629q0 47 37 83t82 36q47 0 82.5 -35t35.5 -84t-35.5 -84t-82.5 -35q-45 0 -82 35t-37 84z" />
<glyph unicode=";" horiz-adv-x="569" d="M45 -385l133 479q33 121 127 121q47 0 75 -29.5t28 -74.5q0 -39 -33 -84l-309 -412h-21zM160 629q0 47 36.5 83t82.5 36q47 0 82.5 -35t35.5 -84t-35.5 -84t-82.5 -35q-45 0 -82 35t-37 84z" />
<glyph unicode="&#x3c;" horiz-adv-x="1228" d="M160 391v103l909 413v-131l-758 -336l758 -331v-132z" />
<glyph unicode="=" horiz-adv-x="1228" d="M172 207v123h885v-123h-885zM172 555v123h885v-123h-885z" />
<glyph unicode="&#x3e;" horiz-adv-x="1228" d="M160 -23v132l758 335l-758 332v131l909 -413v-103z" />
<glyph unicode="?" horiz-adv-x="796" d="M55 1014q-16 373 314 372q160 0 280.5 -90t120.5 -249q0 -35 -3 -67t-14.5 -61.5t-18.5 -50t-28.5 -48t-30.5 -41t-38 -41t-40 -37t-46 -40t-45 -38.5q-27 -25 -45.5 -71t-25.5 -85t-16 -105.5t-13 -91.5h-62l-16 197q-18 184 -18.5 208.5t39.5 58.5t88 67t88 99.5 t40 150.5q0 109 -60.5 174t-166.5 65q-117 0 -160 -71.5t-37 -204.5h-86zM240 108.5q0 53.5 37.5 92.5t93 39t93.5 -39t38 -92.5t-38 -92.5t-93.5 -39t-93 39t-37.5 92.5z" />
<glyph unicode="@" horiz-adv-x="1638" d="M135 668q0 289 207 492.5t496 203.5q264 0 453.5 -165t189.5 -415q0 -231 -151.5 -384.5t-297.5 -153.5q-49 0 -81.5 29.5t-35.5 86.5l-4 -2q-106 -115 -225 -114.5t-196.5 88.5t-77.5 211q0 199 122.5 356.5t309.5 157.5q147 0 215 -146l37 115h127l-152 -520 q-16 -61 -18 -88q-4 -53 41 -53q96 0 176 127t80 276q0 219 -146.5 351t-365.5 132q-244 0 -408 -174t-164 -421.5t170 -415.5t416 -168q131 0 252 57t201 156h125q-90 -152 -246 -238t-336 -86q-299 0 -506 204t-207 501zM563 561q0 -80 44 -132t114 -52q113 0 195.5 127 t82.5 250q0 68 -46 121t-105 53q-117 0 -201 -121t-84 -246z" />
<glyph unicode="A" d="M16 0l541 1364h4l559 -1364h-256l-141 346h-457l-133 -346h-117zM301 432h387l-194 488z" />
<glyph unicode="B" horiz-adv-x="1175" d="M131 0v1327h551q109 0 188.5 -35t119.5 -90t58.5 -108.5t18.5 -104.5q0 -117 -63.5 -193.5t-169.5 -103.5v-4q135 -29 208.5 -114t73.5 -212q0 -156 -104.5 -259t-317.5 -103h-563zM381 86h199q287 0 286 270q0 63 -22.5 126t-89 115t-164.5 52h-209v-563zM381 735h176 q113 0 186.5 58.5t73.5 185.5q0 262 -307 262h-129v-506z" />
<glyph unicode="C" horiz-adv-x="1327" d="M57 647q0 313 202 515t499 202q154 0 289 -75t223 -199l-74 -54q-88 115 -176 178.5t-207 63.5q-238 0 -362.5 -164t-124.5 -457q0 -242 119.5 -415.5t336.5 -173.5q145 0 264 79.5t177 210.5l88 -43q-170 -352 -578 -352q-281 0 -478.5 202.5t-197.5 481.5z" />
<glyph unicode="D" horiz-adv-x="1327" d="M141 0v1327h432q174 0 312.5 -58.5t222.5 -155.5t128 -219t44 -255q0 -309 -180 -474t-479 -165h-480zM391 86h156q483 0 483 549q0 264 -122 435t-349 171h-168v-1155z" />
<glyph unicode="E" horiz-adv-x="1024" d="M152 0v1327h784v-86h-535v-512h504v-86h-504v-557h543v-86h-792z" />
<glyph unicode="F" horiz-adv-x="948" d="M160 0v1327h762v-86h-512v-512h467v-86h-467v-643h-250z" />
<glyph unicode="G" horiz-adv-x="1402" d="M57 647q0 313 202 515t499 202q154 0 289 -75t223 -199l-74 -54q-88 115 -176 178.5t-207 63.5q-238 0 -362.5 -164t-124.5 -457q0 -260 120.5 -434t344.5 -174q86 0 165.5 30t112.5 73v495h250v-479q-256 -205 -586 -205q-281 0 -478.5 202.5t-197.5 481.5z" />
<glyph unicode="H" horiz-adv-x="1327" d="M141 0v1327h250v-584h545v584h250v-1327h-250v639h-545v-639h-250z" />
<glyph unicode="I" horiz-adv-x="569" d="M160 0v1327h250v-1327h-250z" />
<glyph unicode="J" horiz-adv-x="606" d="M-31 8v66q137 2 191.5 43t54.5 162v1048h250v-1020q0 -133 -86 -220t-260 -87q-103 0 -150 8z" />
<glyph unicode="K" horiz-adv-x="1062" d="M152 0v1327h249v-1327h-249zM408 668l520 659h143l-442 -569l485 -758h-280z" />
<glyph unicode="L" horiz-adv-x="948" d="M168 0v1327h250v-1223h532v-104h-782z" />
<glyph unicode="M" horiz-adv-x="1554" d="M141 0v1327h275l381 -899l356 899h260v-1327h-250v1067h-4l-434 -1104h-4l-469 1116h-4v-1079h-107z" />
<glyph unicode="N" horiz-adv-x="1327" d="M150 0v1327h223l694 -913h4v913h107v-1327h-111l-807 1059h-4v-1059h-106z" />
<glyph unicode="O" horiz-adv-x="1402" d="M43 664q0 297 186.5 498.5t470.5 201.5q287 0 473.5 -201.5t186.5 -498.5t-186.5 -499t-473.5 -202q-285 0 -471 202t-186 499zM311 664q0 -84 9.5 -163t36 -164t68.5 -146.5t112.5 -101.5t163 -40t163 40t112.5 101.5t69.5 146.5t37 164t9.5 163t-9.5 162.5t-37 163.5 t-69.5 146.5t-112.5 101.5t-163 40t-163 -40t-112.5 -101.5t-68.5 -146.5t-36 -163.5t-9.5 -162.5z" />
<glyph unicode="P" horiz-adv-x="1099" d="M141 0v1327h543q162 0 281.5 -104.5t119.5 -288.5q0 -209 -124.5 -296t-387.5 -87h-182v-551h-250zM391 637h123q164 0 243 82t79 252q0 123 -75 207t-253 84h-117v-625z" />
<glyph unicode="Q" horiz-adv-x="1402" d="M43 664q0 297 186.5 498.5t470.5 201.5q287 0 473.5 -201.5t186.5 -498.5q0 -266 -153.5 -460t-397.5 -231v-141h-215v141q-244 37 -397.5 231t-153.5 460zM311 664q0 -94 12.5 -180.5t42 -174.5t88 -153.5t140.5 -89.5v155h215v-155q154 49 218.5 220t64.5 378 q0 84 -9.5 162.5t-37 163.5t-69.5 146.5t-112.5 101.5t-163 40t-163 -40t-112.5 -101.5t-68.5 -146.5t-36 -163.5t-9.5 -162.5z" />
<glyph unicode="R" d="M141 0v1327h574q174 0 275.5 -112.5t101.5 -278.5q0 -272 -347 -315l353 -621h-275l-362 680h16q172 0 268.5 70.5t96.5 214.5q0 127 -74 212t-242 85h-135v-1262h-250z" />
<glyph unicode="S" horiz-adv-x="1062" d="M109 975q0 162 120.5 275.5t305.5 113.5q125 0 236.5 -64.5t162.5 -173.5l-86 -55q-90 188 -273 189q-100 0 -158.5 -67t-58.5 -165q0 -72 46.5 -124t116 -78.5t149.5 -63.5t149.5 -78t115.5 -122t46 -193q0 -176 -131 -291t-305 -115q-293 0 -418 207l92 68 q55 -88 117.5 -129t157.5 -41q90 0 163.5 65.5t73.5 163.5q0 104 -64.5 169.5t-155.5 100.5t-182 73t-155.5 121t-64.5 214z" />
<glyph unicode="T" horiz-adv-x="833" d="M27 1241v86h778v-86h-264v-1241h-250v1241h-264z" />
<glyph unicode="U" horiz-adv-x="1251" d="M145 385v942h250v-948q0 -137 93.5 -209t189.5 -72q39 0 78 6.5t84 23.5t78.5 46t56 78t22.5 115v960h107v-991q0 -147 -117 -260t-348 -113q-90 0 -171 19.5t-156.5 63.5t-121 131t-45.5 208z" />
<glyph unicode="V" horiz-adv-x="1099" d="M6 1327h260l369 -878l340 878h119l-525 -1364h-4z" />
<glyph unicode="W" horiz-adv-x="1554" d="M6 1327h254l332 -883l133 340l-199 543h262l336 -876l338 876h119l-539 -1364h-4l-252 670l-268 -670h-4z" />
<glyph unicode="X" d="M4 1327h297l313 -475l338 475h144l-414 -579l487 -748h-309l-338 522l-377 -522h-137l445 629z" />
<glyph unicode="Y" horiz-adv-x="1062" d="M-25 1327h293l342 -528l351 528h149l-434 -653v-674h-250v633z" />
<glyph unicode="Z" d="M27 0l735 1241h-666v86h1016l-739 -1241h727v-86h-1073z" />
<glyph unicode="[" horiz-adv-x="569" d="M92 -375v1702h381v-96h-207v-1510h211v-96h-385z" />
<glyph unicode="\" horiz-adv-x="569" d="M0 1364h127l442 -1401h-127z" />
<glyph unicode="]" horiz-adv-x="569" d="M92 1231v96h385v-1702h-381v96h207v1510h-211z" />
<glyph unicode="^" horiz-adv-x="1228" d="M68 373l483 960h125l485 -960h-157l-394 790l-385 -790h-157z" />
<glyph unicode="_" horiz-adv-x="1024" d="M0 -154h1024v-102h-1024v102z" />
<glyph unicode="`" horiz-adv-x="454" d="M-12 1327h170l194 -311h-94z" />
<glyph unicode="a" horiz-adv-x="796" d="M16 0l207 754q23 76 59.5 114.5t110.5 38.5q45 0 74 -12t49.5 -48t27.5 -55.5t25 -78.5l211 -713h-194l-78 268h-332l-74 -268h-86zM201 354h282l-100 344q-4 12 -7 28.5t-5 24t-6.5 16.5t-9.5 12t-13 3q-4 0 -8 -1t-7 -4l-6 -6q-3 -3 -5.5 -8l-4.5 -9t-4 -12.5t-3 -13.5 l-3 -15q-2 -10 -4 -17z" />
<glyph unicode="b" horiz-adv-x="948" d="M117 0v1462h184v-577h162q197 0 327 -117t130 -338q0 -51 -11.5 -104.5t-43 -112.5t-78 -105.5t-122 -77t-171.5 -30.5h-377zM301 66h121q137 0 210 104t73 254q0 162 -78 278.5t-238 116.5h-88v-753z" />
<glyph unicode="c" horiz-adv-x="872" d="M45 444q0 190 124 326.5t320 136.5q119 0 194 -49t146 -145l-75 -37q-84 166 -240 166q-90 0 -150.5 -61.5t-82 -143.5t-21.5 -180q0 -76 10.5 -140.5t37 -131t81.5 -104.5t135 -38q61 0 113.5 33t77 63.5t63.5 89.5l66 -28q-121 -223 -365 -224q-188 0 -311 131 t-123 336z" />
<glyph unicode="d" horiz-adv-x="948" d="M41 465q0 190 125 305t330 115h151v577h184v-1462h-307q-229 0 -356 123t-127 342zM256 434q0 -156 72.5 -262t220.5 -106h98v753h-131q-260 0 -260 -385z" />
<glyph unicode="e" horiz-adv-x="757" d="M123 156v546q0 39 5 67t19.5 56.5t48 44t87.5 15.5h419v-66h-350q-45 0 -45 -41v-278h326v-86h-326v-287q0 -61 70 -61h350v-66h-463q-141 0 -141 156z" />
<glyph unicode="f" horiz-adv-x="530" d="M145 0v1243q0 219 318 219h63v-86h-82q-63 0 -88.5 -39t-25.5 -86v-366h207v-86h-207v-799h-185z" />
<glyph unicode="g" horiz-adv-x="909" d="M45 432q0 213 114.5 344t321.5 131q203 0 326 -188l-76 -51q-43 61 -62.5 86.5t-65.5 56.5t-97 31q-70 0 -121 -38t-76.5 -101.5t-37 -129t-11.5 -137.5q0 -94 20.5 -177t81 -149.5t152.5 -66.5q55 0 105.5 54.5t50.5 138.5v202h170v-844h-170v457q-96 -74 -207 -74 q-197 0 -307.5 131t-110.5 324z" />
<glyph unicode="h" horiz-adv-x="948" d="M123 0v1462h184v-923h334v346h184v-885h-184v453h-334v-453h-184z" />
<glyph unicode="i" horiz-adv-x="454" d="M106 1212.5q0 51.5 34 86t87.5 34.5t87 -34.5t33.5 -86t-33.5 -86t-87 -34.5t-87.5 34.5t-34 86zM135 0v885h184v-885h-184z" />
<glyph unicode="j" horiz-adv-x="454" d="M-47 -340h23q96 0 132 31q40 35 39 125v1069h185v-1049q0 -139 -81 -190.5t-214 -51.5q-49 0 -84 7v59zM119 1212.5q0 51.5 33.5 86t87 34.5t87 -34.5t33.5 -86t-33.5 -86t-87 -34.5t-87 34.5t-33.5 86z" />
<glyph unicode="k" horiz-adv-x="833" d="M131 0v1462h184v-1032h4l355 455h121l-301 -381l393 -504h-240l-328 410h-4v-410h-184z" />
<glyph unicode="l" horiz-adv-x="454" d="M131 121v1341h184v-1370q0 -27 27 -26h123v-66h-211q-72 0 -97.5 32t-25.5 89z" />
<glyph unicode="m" horiz-adv-x="1099" d="M117 0v737q0 84 31.5 127t109.5 43q41 0 68.5 -10t46 -41t24.5 -48t23 -69l125 -389h6l131 457q27 100 137 100q80 0 122 -46t42 -126v-735h-174v727q0 25 -6 32t-23 7q-18 0 -61 -164l-148 -522q-14 -55 -27.5 -70.5t-41.5 -15.5q-18 0 -31.5 14.5t-17.5 24.5t-13 43 l-188 631q-14 55 -31 55q-10 0 -10 -53v-709h-94z" />
<glyph unicode="n" horiz-adv-x="948" d="M121 0v752q0 133 137 133q82 0 141 -82q72 -104 158 -234.5t125 -187.5t45 -57q14 0 14 20v541h86v-817q0 -49 -9 -70t-48 -21q-14 0 -25.5 4.5t-18.5 8.5t-17.5 15t-14.5 17.5t-15 25t-15 24.5l-72 106q-115 174 -246 377q-74 115 -94.5 144.5t-30.5 29.5q-14 0 -14 -27 v-702h-86z" />
<glyph unicode="o" horiz-adv-x="985" d="M31 442q0 203 124 334t337 131q182 0 321 -140t139 -325q0 -203 -123.5 -334t-336.5 -131q-182 0 -321.5 140.5t-139.5 324.5zM246 442.5q0 -182.5 73.5 -291t172 -108.5t172 108.5t73.5 291t-73.5 291t-172 108.5t-172 -108.5t-73.5 -291z" />
<glyph unicode="p" horiz-adv-x="948" d="M119 -406v1291h297q215 0 353 -126t138 -317q0 -213 -113.5 -327.5t-310.5 -114.5h-180v-406h-184zM303 66h131q131 0 194.5 90t63.5 245q0 418 -338 418h-51v-753z" />
<glyph unicode="q" horiz-adv-x="985" d="M31 442q0 203 124 334t337 131q182 0 321 -140t139 -325q0 -182 -101 -308t-280 -148v-242h-157v242q-158 29 -270.5 160.5t-112.5 295.5zM246 442q0 -143 47 -242.5t121 -136.5v177h157v-174q72 37 119 136t47 240q0 182 -73.5 291t-172 109t-172 -109t-73.5 -291z" />
<glyph unicode="r" horiz-adv-x="833" d="M121 0v885h387q115 0 190.5 -64.5t75.5 -173.5q0 -96 -44 -140t-146 -77l239 -430h-213l-221 442h21q180 0 180 199q0 76 -45 127t-152 51h-88v-819h-184z" />
<glyph unicode="s" horiz-adv-x="645" d="M33 633q0 92 51 152.5t115.5 80t138.5 19.5q86 0 201 -15v-61q-37 4 -58 6q-37 4 -57 4h-60q-17 0 -55.5 -6t-55.5 -18.5t-32.5 -37t-15.5 -61.5q0 -45 42 -81.5t102.5 -66.5t119.5 -64.5t101 -94t42 -139.5q0 -123 -86 -186.5t-219 -63.5q-162 0 -252 23v57 q104 -14 181 -14q193 0 192 135q0 51 -41 91t-99.5 70.5t-115.5 63.5t-98 85t-41 122z" />
<glyph unicode="t" horiz-adv-x="569" d="M12 819v66h545v-66h-180v-819h-184v819h-181z" />
<glyph unicode="u" horiz-adv-x="872" d="M115 276v609h184v-631q0 -96 54.5 -137t125.5 -41q90 0 141.5 63.5t51.5 179.5v566h86v-617q0 -141 -88 -216t-219 -75q-43 0 -82 5.5t-87.5 24t-83 49t-59 87.5t-24.5 133z" />
<glyph unicode="v" horiz-adv-x="796" d="M12 885h205l203 -680q4 -12 8 -28.5t6 -24t5 -16.5t7.5 -12t10.5 -3q20 0 43 80l194 684h90l-221 -760q-29 -80 -61.5 -114t-104 -34t-104.5 39t-60 121z" />
<glyph unicode="w" horiz-adv-x="1214" d="M-2 885h195l188 -629q6 -16 12 -37.5t10 -34.5l10 -27q5 -15 8 -23.5t7 -15.5t7 -10.5t7 -3.5q16 0 43 95l72 235l-137 451h205l198 -668q4 -14 9.5 -32.5t8.5 -31t7 -24.5t10 -18.5t12 -6.5q12 0 20.5 13.5t14.5 36t8 24.5l201 707h100l-229 -791q-20 -74 -55 -95.5 t-119 -21.5q-115 0 -147 107l-58 195h-4l-51 -170q-25 -84 -58.5 -108t-97 -24t-103.5 30t-61 104z" />
<glyph unicode="x" horiz-adv-x="833" d="M14 885h228l209 -312l237 312h105l-291 -391l338 -494h-226l-231 336l-256 -336h-107l310 414z" />
<glyph unicode="y" horiz-adv-x="796" d="M-4 885h205l248 -641l256 641h96l-535 -1291h-94l170 402z" />
<glyph unicode="z" horiz-adv-x="681" d="M29 0l362 819h-311v66h399q104 0 105 -72q0 -37 -86 -231l-224 -516h406v-66h-651z" />
<glyph unicode="{" horiz-adv-x="681" d="M76 434v86q82 0 122 80t40 199v325q0 109 55 173.5t145 64.5h168v-96h-104q-45 0 -67.5 -55.5t-22.5 -133.5v-311q0 -127 -57.5 -199.5t-102.5 -87.5v-4q18 -8 40.5 -25.5t51.5 -50t48.5 -89t19.5 -126.5v-307q0 -80 22.5 -133t67.5 -53h104v-97h-168q-90 0 -145 63.5 t-55 174.5v320q0 121 -40 201.5t-122 80.5z" />
<glyph unicode="|" horiz-adv-x="454" d="M166 -512v2048h123v-2048h-123z" />
<glyph unicode="}" horiz-adv-x="681" d="M76 -309h104q45 0 67.5 55t22.5 133v311q0 127 57.5 200t102.5 87v4q-18 8 -40.5 25.5t-51.5 50.5t-48.5 89t-19.5 126v307q0 80 -22.5 133.5t-67.5 53.5h-104v96h168q90 0 145 -63.5t55 -174.5v-319q0 -121 40 -202t122 -81v-86q-82 0 -122 -80t-40 -198v-326 q0 -109 -55 -173.5t-145 -64.5h-168v97z" />
<glyph unicode="~" horiz-adv-x="1228" d="M117 401q92 184 266 185q90 0 240 -68q14 -6 46.5 -20.5t50 -22.5t42 -17t45 -13.5t37.5 -4.5q41 0 79 27t57 52.5t54 76.5l78 -113q-43 -59 -71.5 -91t-83 -62.5t-115.5 -30.5q-86 0 -221 70q-131 76 -248 75q-111 0 -178 -155z" />
<glyph unicode="&#xa1;" horiz-adv-x="569" d="M158 877q0 51 39 89t88 38t88 -38t39 -89.5t-39 -89t-88 -37.5t-88 39t-39 88zM168 -295q0 16 3 50t10 95.5t12 114.5l65 750h53l66 -750q4 -53 11 -114.5t10 -95.5t3 -50q0 -41 -34.5 -76t-81.5 -35t-82 35t-35 76z" />
<glyph unicode="&#xa2;" d="M135 473q0 193 125 331t320 138q10 0 20 -1t22.5 -3t20.5 -2l39 197h74l-41 -213q102 -37 207 -175l-76 -36q-57 111 -146 147l-151 -782q25 -8 65 -8q61 0 113.5 32.5t77 64.5t63.5 91l66 -29q-123 -225 -365 -225q-25 0 -34 2l-37 -186h-74l39 198q-143 33 -235.5 158 t-92.5 301zM350 485q0 -285 131 -379l148 768q-8 2 -23 3q-92 0 -152.5 -62.5t-82 -147t-21.5 -182.5z" />
<glyph unicode="&#xa3;" d="M152 0l159 573h-141v86h172l100 336q59 199 163 283t249 84q90 0 166 -31t108 -76l-67 -63q-61 61 -154 61q-74 0 -126 -53t-76 -133l-117 -408h241v-86h-274l-139 -469h522v-104h-786z" />
<glyph unicode="&#xa4;" d="M31 219l116 117q-113 127 -112.5 331.5t112.5 331.5l-116 117l90 90l121 -121q135 117 327.5 117t327.5 -117l121 121l90 -90l-119 -117q115 -129 115 -331.5t-115 -331.5l119 -117l-90 -92l-121 121q-133 -115 -327.5 -115t-327.5 115l-121 -121zM160 668 q0 -168 119.5 -291t289.5 -123t290 123t120 291q0 166 -121 289.5t-289 123.5t-288.5 -123.5t-120.5 -289.5z" />
<glyph unicode="&#xa5;" d="M82 1333h205l327 -579l334 579h109l-258 -448h209v-86h-256l-70 -119h272v-86h-272v-594h-215v594h-287v86h269l-66 119h-256v86h209z" />
<glyph unicode="&#xa6;" horiz-adv-x="454" d="M166 358h123v-716h-123v716zM166 666v716h123v-716h-123z" />
<glyph unicode="&#xa7;" horiz-adv-x="909" d="M20 569q0 139 78 200.5t209 49.5q-162 166 -162 309q0 111 88.5 173.5t200.5 62.5q231 0 361 -174l-95 -68q-96 145 -235 146q-59 0 -97 -32t-38 -89q0 -45 87 -139.5t192.5 -190.5t192.5 -216t87 -208q0 -125 -78 -189.5t-195 -53.5q2 -4 44 -59.5t55.5 -77t32 -70.5 t18.5 -93q0 -109 -95.5 -177t-209.5 -68q-106 0 -187 40t-153 136l86 67q117 -147 227 -147q66 0 107 27.5t41 81.5q0 61 -88 162.5t-192.5 194.5t-193 206.5t-88.5 195.5zM195 627q0 -45 28.5 -88t108.5 -121q16 -16 41.5 -43t38.5 -39l32 -33q20 -20 30.5 -28.5t27 -20.5 t28 -16.5t24.5 -8.5t26 -4q55 0 95 29t40 94q0 39 -39 88t-129 137q-133 135 -160 152q-27 18 -61 18q-57 0 -94 -31.5t-37 -84.5z" />
<glyph unicode="&#xa8;" horiz-adv-x="454" d="M-29 1167.5q0 34.5 28 61t60.5 26.5t60 -26.5t27.5 -61t-27.5 -61.5t-60 -27t-60.5 27t-28 61.5zM307 1167.5q0 34.5 27.5 61t60.5 26.5t60.5 -26.5t27.5 -61t-27.5 -61.5t-60.5 -27t-60.5 27t-27.5 61.5z" />
<glyph unicode="&#xa9;" horiz-adv-x="1638" d="M109 666q0 299 209.5 498.5t502.5 199.5q291 0 500 -200.5t209 -497.5q0 -301 -209 -502t-500 -201q-293 0 -502.5 201t-209.5 502zM250 666q0 -250 165 -418t406 -168q240 0 404 168t164 418q0 246 -164 413.5t-404 167.5q-242 0 -406.5 -166.5t-164.5 -414.5zM432 668 q0 188 109.5 308t296.5 120q137 0 234 -77t118 -214h-127q-16 76 -76.5 125t-146.5 49q-125 0 -196 -87t-71 -222q0 -131 75 -224.5t196 -93.5q88 0 148.5 51.5t70.5 131.5h129q-29 -137 -124 -218t-224 -81q-186 0 -299 123t-113 309z" />
<glyph unicode="&#xaa;" horiz-adv-x="477" d="M-10 817l133 453q27 92 110 92q29 0 48.5 -7t32 -27.5t18.5 -35t16 -47.5l139 -428h-141l-47 152h-199l-47 -152h-63zM115 1030h168l-72 244q-4 10 -12.5 10t-16.5 -24z" />
<glyph unicode="&#xab;" horiz-adv-x="1024" d="M125 344v197l338 262v-187l-223 -174l223 -174v-186zM569 344v197l338 262v-187l-223 -174l223 -174v-186z" />
<glyph unicode="&#xac;" horiz-adv-x="1228" d="M172 555v123h885v-488h-123v365h-762z" />
<glyph unicode="&#xad;" horiz-adv-x="681" d="M78 215v174l526 281v-174z" />
<glyph unicode="&#xae;" horiz-adv-x="1638" d="M109 666q0 299 209.5 498.5t502.5 199.5q291 0 500 -200.5t209 -497.5q0 -301 -209 -502t-500 -201q-293 0 -502.5 201t-209.5 502zM250 666q0 -250 165 -418t406 -168q240 0 404 168t164 418q0 246 -164 413.5t-404 167.5q-242 0 -406.5 -166.5t-164.5 -414.5zM547 276 v820h311q291 0 291 -234q0 -197 -213 -225l231 -361h-139l-217 357h-135v-357h-129zM676 737h143q66 0 102.5 6.5t67.5 37t31 89.5q0 121 -180 121h-164v-254z" />
<glyph unicode="&#xaf;" horiz-adv-x="454" d="M-37 1102v125h529v-125h-529z" />
<glyph unicode="&#xb0;" horiz-adv-x="819" d="M102 1055q0 129 88.5 218t219.5 89q129 0 218 -89t89 -218q0 -131 -89 -219t-218 -88q-131 0 -219.5 88t-88.5 219zM188 1055q0 -98 63.5 -165t158 -67t158 66.5t63.5 165.5q0 94 -63.5 162.5t-158 68.5t-158 -68.5t-63.5 -162.5z" />
<glyph unicode="&#xb1;" horiz-adv-x="1228" d="M172 0v123h885v-123h-885zM172 485v123h385v277h123v-277h377v-123h-377v-274h-123v274h-385z" />
<glyph unicode="&#xb2;" horiz-adv-x="681" d="M47 545l203 256q20 25 67.5 84t64.5 81.5t43 61.5t35 65.5t9 51.5q0 131 -172 131q-166 0 -162 -182h-78q-6 147 71 207.5t206 60.5q123 0 205 -67.5t82 -176.5q0 -45 -30 -103.5t-50.5 -85t-67.5 -85.5l-170 -213h326v-86h-582z" />
<glyph unicode="&#xb3;" horiz-adv-x="681" d="M145 545l205 270q8 10 19.5 25.5t17.5 23.5t14.5 19.5t12.5 18.5t8 15.5t6 14.5t2 12q0 47 -70 47h-200l213 281h-228v78h441l-213 -281h49q76 0 118 -40t42 -85q0 -12 -1 -22.5t-5.5 -22.5t-7.5 -20.5t-12 -22.5t-13 -22.5t-17.5 -25.5t-19.5 -25.5t-22.5 -30 t-24.5 -31.5l-133 -176h-181z" />
<glyph unicode="&#xb4;" horiz-adv-x="454" d="M102 1016l195 311h170l-270 -311h-95z" />
<glyph unicode="&#xb5;" horiz-adv-x="872" d="M115 -406v1291h184v-631q0 -96 54.5 -137t125.5 -41q90 0 141.5 63.5t51.5 179.5v566h86v-617q0 -141 -88 -216t-219 -75q-84 0 -152 25v-408h-184z" />
<glyph unicode="&#xb6;" horiz-adv-x="1228" d="M133 961q0 178 110.5 272t313.5 94h428v-1687h-106v1591h-244v-1591h-107v964q-170 0 -282.5 105t-112.5 252z" />
<glyph unicode="&#xb7;" horiz-adv-x="569" d="M166 442.5q0 49.5 35 84t84 34.5q51 0 84.5 -34.5t33.5 -84t-33.5 -84t-84.5 -34.5q-49 0 -84 34.5t-35 84z" />
<glyph unicode="&#xb8;" horiz-adv-x="454" d="M-29 -358l17 63q121 -53 182 -53q55 0 92 20.5t37 53.5q0 37 -27.5 63.5t-72.5 26.5q-25 0 -82 -9l59 185h49l-28 -111q96 4 151 -24q68 -33 68 -117q0 -74 -66.5 -110t-148.5 -36q-85 1 -230 48z" />
<glyph unicode="&#xb9;" horiz-adv-x="681" d="M184 1282v61l250 19v-817h-151v745z" />
<glyph unicode="&#xba;" horiz-adv-x="591" d="M-2 1083q0 121 81 200t218 79q119 0 209 -84t90 -195q0 -123 -80 -200.5t-219 -77.5q-119 0 -209 82.5t-90 195.5zM145 1083q0 -109 43 -163t108.5 -54t109 54.5t43.5 162.5q0 106 -43.5 161.5t-109 55.5t-108.5 -55.5t-43 -161.5z" />
<glyph unicode="&#xbb;" horiz-adv-x="1024" d="M117 82v186l227 174l-227 174v187l338 -262v-197zM561 82v186l227 174l-227 174v187l338 -262v-197z" />
<glyph unicode="&#xbc;" horiz-adv-x="1708" d="M158 1282v61l250 19v-817h-152v745zM301 -29l907 1391h119l-907 -1391h-119zM924 250v55l379 496h161v-465h148v-86h-148v-250h-151v250h-389zM1030 336h283v371h-4z" />
<glyph unicode="&#xbd;" horiz-adv-x="1708" d="M158 1282v61l250 19v-817h-152v745zM236 -29l907 1391h119l-908 -1391h-118zM969 0l202 256q20 25 67.5 84t65 81.5t43 61.5t35 65.5t9.5 51.5q0 131 -172 131q-166 0 -162 -182h-78q-6 147 70.5 207.5t205.5 60.5q123 0 205 -67.5t82 -176.5q0 -45 -29.5 -103t-50 -85 t-67.5 -86l-170 -213h325v-86h-581z" />
<glyph unicode="&#xbe;" horiz-adv-x="1708" d="M102 545l205 270q8 10 19.5 25.5t17.5 23.5t14.5 19.5t12.5 18.5t8 15.5t6 14.5t2 12q0 47 -70 47h-200l213 281h-228v78h441l-213 -281h49q76 0 118 -40t42 -85q0 -12 -1 -22.5t-5.5 -22.5t-7.5 -20.5t-12 -22.5t-13 -22.5t-17.5 -25.5t-19.5 -25.5t-22.5 -30 t-24.5 -31.5l-133 -176h-181zM287 -29l907 1391h119l-907 -1391h-119zM905 250v55l379 496h162v-465h147v-86h-147v-250h-152v250h-389zM1012 332h282v370h-4z" />
<glyph unicode="&#xbf;" horiz-adv-x="796" d="M27 -66q0 35 3 67t14 61.5t18.5 50t29 48t30.5 41t37.5 41t40 37t46.5 40t45 38.5q27 25 45 71t25.5 85t16.5 105.5t13 91.5h62l16 -197q18 -184 18 -208.5t-39.5 -58.5t-88 -67t-88.5 -99.5t-40 -150.5q0 -109 60.5 -174t167.5 -65q117 0 160 71.5t36 204.5h86 q16 -373 -313 -373q-160 0 -280.5 90t-120.5 250zM295 872.5q0 53.5 38 92.5t93 39t93 -39t38 -92.5t-38 -92.5t-93 -39t-93 39t-38 92.5z" />
<glyph unicode="&#xc0;" d="M16 0l541 1364h4l559 -1364h-256l-141 346h-457l-133 -346h-117zM301 432h387l-194 488zM317 1743h170l195 -311h-94z" />
<glyph unicode="&#xc1;" d="M16 0l541 1364h4l559 -1364h-256l-141 346h-457l-133 -346h-117zM301 432h387l-194 488zM432 1432l195 311h170l-271 -311h-94z" />
<glyph unicode="&#xc2;" d="M16 0l541 1364h4l559 -1364h-256l-141 346h-457l-133 -346h-117zM268 1432l211 311h152l215 -311h-94l-195 227l-195 -227h-94zM301 432h387l-194 488z" />
<glyph unicode="&#xc3;" d="M16 0l541 1364h4l559 -1364h-256l-141 346h-457l-133 -346h-117zM264 1483q6 70 58.5 125t121.5 55q47 0 129 -23q84 -27 121 -26q20 0 42 22.5t34 51.5h80q-10 -76 -63.5 -130.5t-129.5 -54.5q-55 0 -114 23q-63 23 -115 22q-66 0 -88 -59zM301 432h387l-194 488z" />
<glyph unicode="&#xc4;" d="M16 0l541 1364h4l559 -1364h-256l-141 346h-457l-133 -346h-117zM301 432h387l-194 488zM301 1583q0 35 27.5 61.5t60.5 26.5t60.5 -26.5t27.5 -61.5t-27.5 -61.5t-60.5 -26.5t-60.5 26.5t-27.5 61.5zM637 1583q0 35 27.5 61.5t60.5 26.5t60.5 -26.5t27.5 -61.5 t-27.5 -61.5t-60.5 -26.5t-60.5 26.5t-27.5 61.5z" />
<glyph unicode="&#xc5;" d="M16 0l541 1364h4l559 -1364h-256l-141 346h-457l-133 -346h-117zM301 432h387l-194 488zM332 1653q0 92 64.5 158.5t160.5 66.5t160.5 -66.5t64.5 -158.5t-64.5 -159t-160.5 -67t-160.5 67t-64.5 159zM408 1652.5q0 -61.5 43 -105.5t106.5 -44t106.5 44t43 105.5 t-43 105.5t-106.5 44t-106.5 -44t-43 -105.5z" />
<glyph unicode="&#xc6;" horiz-adv-x="1705" d="M-53 0l848 1327h843v-86h-532v-512h504v-86h-504v-557h543v-86h-793v449h-459q-27 0 -36 -5.5t-25 -29.5l-262 -414h-127zM414 535h442v696h-4z" />
<glyph unicode="&#xc7;" horiz-adv-x="1327" d="M57 647q0 313 202 515t499 202q154 0 289 -75t223 -199l-74 -54q-88 115 -176 178.5t-207 63.5q-238 0 -362.5 -164t-124.5 -457q0 -242 119.5 -415.5t336.5 -173.5q145 0 264 79.5t177 210.5l88 -43q-168 -346 -561 -352l-23 -82q96 4 152 -24q68 -33 67 -117 q0 -74 -66.5 -110t-148.5 -36q-84 0 -229 48l16 63q121 -53 182 -53q55 0 92 20.5t37 53.5q0 37 -27.5 63.5t-72.5 26.5q-25 0 -82 -9l51 158q-268 14 -454.5 213t-186.5 469z" />
<glyph unicode="&#xc8;" horiz-adv-x="1024" d="M152 0v1327h784v-86h-535v-512h504v-86h-504v-557h543v-86h-792zM307 1743h170l195 -311h-94z" />
<glyph unicode="&#xc9;" horiz-adv-x="1024" d="M152 0v1327h784v-86h-535v-512h504v-86h-504v-557h543v-86h-792zM422 1432l194 311h170l-270 -311h-94z" />
<glyph unicode="&#xca;" horiz-adv-x="1024" d="M152 0v1327h784v-86h-535v-512h504v-86h-504v-557h543v-86h-792zM258 1432l211 311h152l215 -311h-95l-194 227l-195 -227h-94z" />
<glyph unicode="&#xcb;" horiz-adv-x="1024" d="M152 0v1327h784v-86h-535v-512h504v-86h-504v-557h543v-86h-792zM291 1583q0 35 27.5 61.5t60.5 26.5t60.5 -26.5t27.5 -61.5t-27.5 -61.5t-60.5 -26.5t-60.5 26.5t-27.5 61.5zM627 1583q0 35 27.5 61.5t60.5 26.5t60.5 -26.5t27.5 -61.5t-27.5 -61.5t-60.5 -26.5 t-60.5 26.5t-27.5 61.5z" />
<glyph unicode="&#xcc;" horiz-adv-x="569" d="M45 1743h170l195 -311h-95zM160 0v1327h250v-1327h-250z" />
<glyph unicode="&#xcd;" horiz-adv-x="569" d="M160 0v1327h250v-1327h-250zM160 1432l194 311h170l-270 -311h-94z" />
<glyph unicode="&#xce;" horiz-adv-x="569" d="M-4 1432l211 311h151l215 -311h-94l-194 227l-195 -227h-94zM160 0v1327h250v-1327h-250z" />
<glyph unicode="&#xcf;" horiz-adv-x="569" d="M29 1583q0 35 27.5 61.5t60.5 26.5t60.5 -26.5t27.5 -61.5t-27.5 -61.5t-60.5 -26.5t-60.5 26.5t-27.5 61.5zM160 0v1327h250v-1327h-250zM365 1583q0 35 27.5 61.5t60 26.5t60.5 -26.5t28 -61.5t-28 -61.5t-60.5 -26.5t-60 26.5t-27.5 61.5z" />
<glyph unicode="&#xd0;" horiz-adv-x="1327" d="M-14 639v104h155v584h432q174 0 312.5 -58.5t222.5 -155.5t128 -219t44 -255q0 -309 -180 -474t-479 -165h-480v639h-155zM391 86h156q483 0 483 549q0 264 -122 435t-349 171h-168v-498h307v-104h-307v-553z" />
<glyph unicode="&#xd1;" horiz-adv-x="1327" d="M150 0v1327h223l694 -913h4v913h107v-1327h-111l-807 1059h-4v-1059h-106zM383 1483q6 70 58.5 125t121.5 55q47 0 129 -23q84 -27 121 -26q20 0 42 22.5t34 51.5h80q-10 -76 -63.5 -130.5t-129.5 -54.5q-55 0 -114 23q-63 23 -115 22q-66 0 -88 -59z" />
<glyph unicode="&#xd2;" horiz-adv-x="1402" d="M43 664q0 297 186.5 498.5t470.5 201.5q287 0 473.5 -201.5t186.5 -498.5t-186.5 -499t-473.5 -202q-285 0 -471 202t-186 499zM311 664q0 -84 9.5 -163t36 -164t68.5 -146.5t112.5 -101.5t163 -40t163 40t112.5 101.5t69.5 146.5t37 164t9.5 163t-9.5 162.5t-37 163.5 t-69.5 146.5t-112.5 101.5t-163 40t-163 -40t-112.5 -101.5t-68.5 -146.5t-36 -163.5t-9.5 -162.5zM463 1743h170l194 -311h-94z" />
<glyph unicode="&#xd3;" horiz-adv-x="1402" d="M43 664q0 297 186.5 498.5t470.5 201.5q287 0 473.5 -201.5t186.5 -498.5t-186.5 -499t-473.5 -202q-285 0 -471 202t-186 499zM311 664q0 -84 9.5 -163t36 -164t68.5 -146.5t112.5 -101.5t163 -40t163 40t112.5 101.5t69.5 146.5t37 164t9.5 163t-9.5 162.5t-37 163.5 t-69.5 146.5t-112.5 101.5t-163 40t-163 -40t-112.5 -101.5t-68.5 -146.5t-36 -163.5t-9.5 -162.5zM578 1432l194 311h170l-270 -311h-94z" />
<glyph unicode="&#xd4;" horiz-adv-x="1402" d="M43 664q0 297 186.5 498.5t470.5 201.5q287 0 473.5 -201.5t186.5 -498.5t-186.5 -499t-473.5 -202q-285 0 -471 202t-186 499zM311 664q0 -84 9.5 -163t36 -164t68.5 -146.5t112.5 -101.5t163 -40t163 40t112.5 101.5t69.5 146.5t37 164t9.5 163t-9.5 162.5t-37 163.5 t-69.5 146.5t-112.5 101.5t-163 40t-163 -40t-112.5 -101.5t-68.5 -146.5t-36 -163.5t-9.5 -162.5zM414 1432l211 311h151l215 -311h-94l-195 227l-194 -227h-94z" />
<glyph unicode="&#xd5;" horiz-adv-x="1402" d="M43 664q0 297 186.5 498.5t470.5 201.5q287 0 473.5 -201.5t186.5 -498.5t-186.5 -499t-473.5 -202q-285 0 -471 202t-186 499zM311 664q0 -84 9.5 -163t36 -164t68.5 -146.5t112.5 -101.5t163 -40t163 40t112.5 101.5t69.5 146.5t37 164t9.5 163t-9.5 162.5t-37 163.5 t-69.5 146.5t-112.5 101.5t-163 40t-163 -40t-112.5 -101.5t-68.5 -146.5t-36 -163.5t-9.5 -162.5zM410 1483q6 70 58 125t122 55q47 0 129 -23q84 -27 121 -26q20 0 41.5 22.5t33.5 51.5h80q-10 -76 -63 -130.5t-129 -54.5q-55 0 -115 23q-63 23 -115 22q-66 0 -88 -59z " />
<glyph unicode="&#xd6;" horiz-adv-x="1402" d="M43 664q0 297 186.5 498.5t470.5 201.5q287 0 473.5 -201.5t186.5 -498.5t-186.5 -499t-473.5 -202q-285 0 -471 202t-186 499zM311 664q0 -84 9.5 -163t36 -164t68.5 -146.5t112.5 -101.5t163 -40t163 40t112.5 101.5t69.5 146.5t37 164t9.5 163t-9.5 162.5t-37 163.5 t-69.5 146.5t-112.5 101.5t-163 40t-163 -40t-112.5 -101.5t-68.5 -146.5t-36 -163.5t-9.5 -162.5zM446 1583q0 35 28 61.5t60.5 26.5t60.5 -26.5t28 -61.5t-28 -61.5t-60.5 -26.5t-60.5 26.5t-28 61.5zM782 1583q0 35 28 61.5t60.5 26.5t60 -26.5t27.5 -61.5t-27.5 -61.5 t-60 -26.5t-60.5 26.5t-28 61.5z" />
<glyph unicode="&#xd7;" horiz-adv-x="1228" d="M172 88l356 354l-356 355l86 88l356 -357l357 357l86 -88l-357 -355l357 -354l-86 -88l-357 356l-356 -356z" />
<glyph unicode="&#xd8;" horiz-adv-x="1402" d="M33 -147l217 292q-207 197 -207 519q0 297 186.5 498.5t470.5 201.5q207 0 365 -111l147 201h123l-192 -262q217 -205 217 -528q0 -297 -186.5 -499t-473.5 -202q-211 0 -376 121l-170 -231h-121zM311 664q0 -207 58 -357l608 828q-98 143 -277 143q-92 0 -162.5 -40 t-112.5 -101.5t-68.5 -146.5t-36 -163.5t-9.5 -162.5zM416 207q98 -158 284 -158q92 0 163 40t113 101.5t69.5 146.5t37 164t9.5 163q0 225 -64 372z" />
<glyph unicode="&#xd9;" horiz-adv-x="1251" d="M145 385v942h250v-948q0 -137 93.5 -209t189.5 -72q39 0 78 6.5t84 23.5t78.5 46t56 78t22.5 115v960h107v-991q0 -147 -117 -260t-348 -113q-90 0 -171 19.5t-156.5 63.5t-121 131t-45.5 208zM412 1743h170l194 -311h-94z" />
<glyph unicode="&#xda;" horiz-adv-x="1251" d="M145 385v942h250v-948q0 -137 93.5 -209t189.5 -72q39 0 78 6.5t84 23.5t78.5 46t56 78t22.5 115v960h107v-991q0 -147 -117 -260t-348 -113q-90 0 -171 19.5t-156.5 63.5t-121 131t-45.5 208zM526 1432l195 311h170l-270 -311h-95z" />
<glyph unicode="&#xdb;" horiz-adv-x="1251" d="M145 385v942h250v-948q0 -137 93.5 -209t189.5 -72q39 0 78 6.5t84 23.5t78.5 46t56 78t22.5 115v960h107v-991q0 -147 -117 -260t-348 -113q-90 0 -171 19.5t-156.5 63.5t-121 131t-45.5 208zM362 1432l211 311h152l215 -311h-94l-195 227l-194 -227h-95z" />
<glyph unicode="&#xdc;" horiz-adv-x="1251" d="M145 385v942h250v-948q0 -137 93.5 -209t189.5 -72q39 0 78 6.5t84 23.5t78.5 46t56 78t22.5 115v960h107v-991q0 -147 -117 -260t-348 -113q-90 0 -171 19.5t-156.5 63.5t-121 131t-45.5 208zM395 1583q0 35 28 61.5t60.5 26.5t60 -26.5t27.5 -61.5t-27.5 -61.5 t-60 -26.5t-60.5 26.5t-28 61.5zM731 1583q0 35 27.5 61.5t60.5 26.5t60.5 -26.5t27.5 -61.5t-27.5 -61.5t-60.5 -26.5t-60.5 26.5t-27.5 61.5z" />
<glyph unicode="&#xdd;" horiz-adv-x="1062" d="M-25 1327h293l342 -528l351 528h149l-434 -653v-674h-250v633zM395 1432l195 311h170l-271 -311h-94z" />
<glyph unicode="&#xde;" horiz-adv-x="1099" d="M141 0v1327h250v-260h293q162 0 281.5 -104.5t119.5 -286.5q0 -76 -18 -136.5t-47 -100.5t-77 -68.5t-91 -43t-105.5 -22.5t-107.5 -10t-109 -2h-139v-293h-250zM391 379h123q164 0 243 82t79 252q0 121 -75 204.5t-253 83.5h-117v-622z" />
<glyph unicode="&#xdf;" horiz-adv-x="1062" d="M104 0v1143q0 168 83 243.5t259 75.5q111 0 199 -24.5t151.5 -94t63.5 -176.5q0 -74 -41 -132t-90 -85.5t-90 -54.5t-41 -45q0 -16 42 -39t102.5 -54.5t120 -76.5t101.5 -125t42 -180q0 -205 -128 -301.5t-348 -96.5q-82 0 -176 17v61q66 -12 109 -12q166 0 247 83 t81 232q0 82 -29 151t-70 113t-82 80.5t-69.5 72.5t-28.5 71q0 37 31.5 74.5t70.5 66.5t71 78t32 106q0 104 -69.5 165t-170.5 61q-98 0 -143 -47t-45 -146v-1204h-185z" />
<glyph unicode="&#xe0;" horiz-adv-x="796" d="M16 0l207 754q23 76 59.5 114.5t110.5 38.5q45 0 74 -12t49.5 -48t27.5 -55.5t25 -78.5l211 -713h-194l-78 268h-332l-74 -268h-86zM160 1327h170l194 -311h-94zM201 354h282l-100 344q-4 12 -7 28.5t-5 24t-6.5 16.5t-9.5 12t-13 3q-4 0 -8 -1t-7 -4l-6 -6 q-3 -3 -5.5 -8l-4.5 -9t-4 -12.5t-3 -13.5l-3 -15q-2 -10 -4 -17z" />
<glyph unicode="&#xe1;" horiz-adv-x="796" d="M16 0l207 754q23 76 59.5 114.5t110.5 38.5q45 0 74 -12t49.5 -48t27.5 -55.5t25 -78.5l211 -713h-194l-78 268h-332l-74 -268h-86zM201 354h282l-100 344q-4 12 -7 28.5t-5 24t-6.5 16.5t-9.5 12t-13 3q-4 0 -8 -1t-7 -4l-6 -6q-3 -3 -5.5 -8l-4.5 -9t-4 -12.5t-3 -13.5 l-3 -15q-2 -10 -4 -17zM274 1016l195 311h170l-270 -311h-95z" />
<glyph unicode="&#xe2;" horiz-adv-x="796" d="M16 0l207 754q23 76 59.5 114.5t110.5 38.5q45 0 74 -12t49.5 -48t27.5 -55.5t25 -78.5l211 -713h-194l-78 268h-332l-74 -268h-86zM111 1016l211 311h151l215 -311h-94l-195 227l-194 -227h-94zM201 354h282l-100 344q-4 12 -7 28.5t-5 24t-6.5 16.5t-9.5 12t-13 3 q-4 0 -8 -1t-7 -4l-6 -6q-3 -3 -5.5 -8l-4.5 -9t-4 -12.5t-3 -13.5l-3 -15q-2 -10 -4 -17z" />
<glyph unicode="&#xe3;" horiz-adv-x="796" d="M16 0l207 754q23 76 59.5 114.5t110.5 38.5q45 0 74 -12t49.5 -48t27.5 -55.5t25 -78.5l211 -713h-194l-78 268h-332l-74 -268h-86zM106 1067q6 70 58.5 125t122.5 55q47 0 129 -22q84 -27 121 -27q20 0 41.5 22.5t33.5 51.5h80q-10 -76 -63.5 -130.5t-128.5 -54.5 q-55 0 -115 23q-63 23 -115 23q-66 0 -88 -60zM201 354h282l-100 344q-4 12 -7 28.5t-5 24t-6.5 16.5t-9.5 12t-13 3q-4 0 -8 -1t-7 -4l-6 -6q-3 -3 -5.5 -8l-4.5 -9t-4 -12.5t-3 -13.5l-3 -15q-2 -10 -4 -17z" />
<glyph unicode="&#xe4;" horiz-adv-x="796" d="M16 0l207 754q23 76 59.5 114.5t110.5 38.5q45 0 74 -12t49.5 -48t27.5 -55.5t25 -78.5l211 -713h-194l-78 268h-332l-74 -268h-86zM143 1167.5q0 34.5 28 61t60.5 26.5t60 -26.5t27.5 -61t-27.5 -61.5t-60 -27t-60.5 27t-28 61.5zM201 354h282l-100 344q-4 12 -7 28.5 t-5 24t-6.5 16.5t-9.5 12t-13 3q-4 0 -8 -1t-7 -4l-6 -6q-3 -3 -5.5 -8l-4.5 -9t-4 -12.5t-3 -13.5l-3 -15q-2 -10 -4 -17zM479 1167.5q0 34.5 28 61t60.5 26.5t60 -26.5t27.5 -61t-27.5 -61.5t-60 -27t-60.5 27t-28 61.5z" />
<glyph unicode="&#xe5;" horiz-adv-x="796" d="M16 0l207 754q23 76 59.5 114.5t110.5 38.5q45 0 74 -12t49.5 -48t27.5 -55.5t25 -78.5l211 -713h-194l-78 268h-332l-74 -268h-86zM174 1237q0 92 64.5 158.5t161 66.5t161 -66.5t64.5 -158.5t-64.5 -158.5t-161 -66.5t-161 66.5t-64.5 158.5zM201 354h282l-100 344 q-4 12 -7 28.5t-5 24t-6.5 16.5t-9.5 12t-13 3q-4 0 -8 -1t-7 -4l-6 -6q-3 -3 -5.5 -8l-4.5 -9t-4 -12.5t-3 -13.5l-3 -15q-2 -10 -4 -17zM250 1237q0 -61 43 -105.5t106.5 -44.5t106.5 44.5t43 105.5t-43 105t-106.5 44t-106.5 -44t-43 -105z" />
<glyph unicode="&#xe6;" horiz-adv-x="1214" d="M-14 0l446 750q61 102 88 120q20 14 47 15h617v-66h-346q-57 0 -58 -49v-270h322v-86h-322v-308q0 -41 49 -40h375v-66h-446q-66 0 -114 37t-48 104v170h-322l-184 -311h-104zM326 397h270v416q-31 0 -59 -47z" />
<glyph unicode="&#xe7;" horiz-adv-x="872" d="M45 444q0 190 124 326.5t320 136.5q119 0 194 -49t146 -145l-75 -37q-84 166 -240 166q-90 0 -150.5 -61.5t-82 -143.5t-21.5 -180q0 -76 10.5 -140.5t37 -131t81.5 -104.5t135 -38q61 0 113.5 33t77 63.5t63.5 89.5l66 -28q-121 -223 -365 -224h-2l-24 -96q96 4 151 -24 q68 -33 68 -117q0 -74 -66.5 -110t-148.5 -36q-84 0 -230 48l17 63q121 -53 182 -53q55 0 92 20.5t37 53.5q0 37 -27.5 63.5t-72.5 26.5q-25 0 -82 -9l57 177q-170 16 -277.5 141.5t-107.5 318.5z" />
<glyph unicode="&#xe8;" horiz-adv-x="757" d="M123 156v546q0 39 5 67t19.5 56.5t48 44t87.5 15.5h419v-66h-350q-45 0 -45 -41v-278h326v-86h-326v-287q0 -61 70 -61h350v-66h-463q-141 0 -141 156zM174 1327h170l195 -311h-95z" />
<glyph unicode="&#xe9;" horiz-adv-x="757" d="M123 156v546q0 39 5 67t19.5 56.5t48 44t87.5 15.5h419v-66h-350q-45 0 -45 -41v-278h326v-86h-326v-287q0 -61 70 -61h350v-66h-463q-141 0 -141 156zM289 1016l194 311h170l-270 -311h-94z" />
<glyph unicode="&#xea;" horiz-adv-x="757" d="M123 156v546q0 39 5 67t19.5 56.5t48 44t87.5 15.5h419v-66h-350q-45 0 -45 -41v-278h326v-86h-326v-287q0 -61 70 -61h350v-66h-463q-141 0 -141 156zM125 1016l211 311h151l215 -311h-94l-194 227l-195 -227h-94z" />
<glyph unicode="&#xeb;" horiz-adv-x="757" d="M123 156v546q0 39 5 67t19.5 56.5t48 44t87.5 15.5h419v-66h-350q-45 0 -45 -41v-278h326v-86h-326v-287q0 -61 70 -61h350v-66h-463q-141 0 -141 156zM158 1167.5q0 34.5 27.5 61t60.5 26.5t60.5 -26.5t27.5 -61t-27.5 -61.5t-60.5 -27t-60.5 27t-27.5 61.5zM494 1167.5 q0 34.5 27.5 61t60 26.5t60.5 -26.5t28 -61t-28 -61.5t-60.5 -27t-60 27t-27.5 61.5z" />
<glyph unicode="&#xec;" horiz-adv-x="454" d="M-12 1327h170l194 -311h-94zM135 0v885h184v-885h-184z" />
<glyph unicode="&#xed;" horiz-adv-x="454" d="M102 1016l195 311h170l-270 -311h-95zM135 0v885h184v-885h-184z" />
<glyph unicode="&#xee;" horiz-adv-x="454" d="M-61 1016l211 311h151l215 -311h-94l-195 227l-194 -227h-94zM135 0v885h184v-885h-184z" />
<glyph unicode="&#xef;" horiz-adv-x="454" d="M-29 1167.5q0 34.5 28 61t60.5 26.5t60 -26.5t27.5 -61t-27.5 -61.5t-60 -27t-60.5 27t-28 61.5zM135 0v885h184v-885h-184zM307 1167.5q0 34.5 27.5 61t60.5 26.5t60.5 -26.5t27.5 -61t-27.5 -61.5t-60.5 -27t-60.5 27t-27.5 61.5z" />
<glyph unicode="&#xf0;" horiz-adv-x="985" d="M31 442q0 203 124 334t337 131q55 0 157 -22q-29 94 -127 239l-217 -108l-41 63l217 109q-76 113 -162 207l119 75q96 -88 193 -208l209 104l39 -61l-205 -103q279 -385 278 -760q0 -203 -123.5 -334t-336.5 -131q-182 0 -321.5 140.5t-139.5 324.5zM246 442.5 q0 -182.5 73.5 -291t172 -108.5t172 108.5t73.5 291t-73.5 291t-172 108.5t-172 -108.5t-73.5 -291z" />
<glyph unicode="&#xf1;" horiz-adv-x="948" d="M121 0v752q0 133 137 133q82 0 141 -82q72 -104 158 -234.5t125 -187.5t45 -57q14 0 14 20v541h86v-817q0 -49 -9 -70t-48 -21q-14 0 -25.5 4.5t-18.5 8.5t-17.5 15t-14.5 17.5t-15 25t-15 24.5l-72 106q-115 174 -246 377q-74 115 -94.5 144.5t-30.5 29.5q-14 0 -14 -27 v-702h-86zM195 1067q6 70 58 125t122 55q47 0 129 -22q84 -27 121 -27q20 0 41.5 22.5t33.5 51.5h80q-10 -76 -63 -130.5t-129 -54.5q-55 0 -115 23q-63 23 -115 23q-66 0 -88 -60z" />
<glyph unicode="&#xf2;" horiz-adv-x="985" d="M31 442q0 203 124 334t337 131q182 0 321 -140t139 -325q0 -203 -123.5 -334t-336.5 -131q-182 0 -321.5 140.5t-139.5 324.5zM246 442.5q0 -182.5 73.5 -291t172 -108.5t172 108.5t73.5 291t-73.5 291t-172 108.5t-172 -108.5t-73.5 -291zM254 1327h170l194 -311h-94z " />
<glyph unicode="&#xf3;" horiz-adv-x="985" d="M31 442q0 203 124 334t337 131q182 0 321 -140t139 -325q0 -203 -123.5 -334t-336.5 -131q-182 0 -321.5 140.5t-139.5 324.5zM246 442.5q0 -182.5 73.5 -291t172 -108.5t172 108.5t73.5 291t-73.5 291t-172 108.5t-172 -108.5t-73.5 -291zM369 1016l194 311h170 l-270 -311h-94z" />
<glyph unicode="&#xf4;" horiz-adv-x="985" d="M31 442q0 203 124 334t337 131q182 0 321 -140t139 -325q0 -203 -123.5 -334t-336.5 -131q-182 0 -321.5 140.5t-139.5 324.5zM205 1016l211 311h151l215 -311h-94l-194 227l-195 -227h-94zM246 442.5q0 -182.5 73.5 -291t172 -108.5t172 108.5t73.5 291t-73.5 291 t-172 108.5t-172 -108.5t-73.5 -291z" />
<glyph unicode="&#xf5;" horiz-adv-x="985" d="M31 442q0 203 124 334t337 131q182 0 321 -140t139 -325q0 -203 -123.5 -334t-336.5 -131q-182 0 -321.5 140.5t-139.5 324.5zM201 1067q6 70 58 125t122 55q47 0 129 -22q84 -27 121 -27q20 0 41.5 22.5t34.5 51.5h79q-10 -76 -63 -130.5t-129 -54.5q-55 0 -115 23 q-63 23 -114 23q-66 0 -89 -60zM246 442.5q0 -182.5 73.5 -291t172 -108.5t172 108.5t73.5 291t-73.5 291t-172 108.5t-172 -108.5t-73.5 -291z" />
<glyph unicode="&#xf6;" horiz-adv-x="985" d="M31 442q0 203 124 334t337 131q182 0 321 -140t139 -325q0 -203 -123.5 -334t-336.5 -131q-182 0 -321.5 140.5t-139.5 324.5zM238 1167.5q0 34.5 27.5 61t60 26.5t60.5 -26.5t28 -61t-28 -61.5t-60.5 -27t-60 27t-27.5 61.5zM246 442.5q0 -182.5 73.5 -291t172 -108.5 t172 108.5t73.5 291t-73.5 291t-172 108.5t-172 -108.5t-73.5 -291zM573 1167.5q0 34.5 28 61t60.5 26.5t60.5 -26.5t28 -61t-28 -61.5t-60.5 -27t-60.5 27t-28 61.5z" />
<glyph unicode="&#xf7;" horiz-adv-x="1228" d="M172 381v123h885v-123h-885zM492 86q0 49 35.5 86t82.5 37q53 0 90 -36t37 -87q0 -49 -36.5 -86t-86 -37t-86 37t-36.5 86zM496 799q0 49 35.5 86t82.5 37q53 0 90 -36t37 -87q0 -49 -36.5 -86t-86 -37t-86 37t-36.5 86z" />
<glyph unicode="&#xf8;" horiz-adv-x="985" d="M31 442q0 203 124 334t337 131q86 0 174 -39l108 207h88l-127 -244q98 -66 157.5 -170t59.5 -219q0 -203 -123.5 -334t-336.5 -131q-92 0 -181 41l-127 -245h-90l150 284q-96 63 -154.5 166.5t-58.5 218.5zM246 442q0 -160 61 -264l314 602q-59 61 -129 62 q-98 0 -172 -109t-74 -291zM358 109q55 -66 134 -66q98 0 171.5 108.5t73.5 290.5q0 164 -63 271z" />
<glyph unicode="&#xf9;" horiz-adv-x="872" d="M115 276v609h184v-631q0 -96 54.5 -137t125.5 -41q90 0 141.5 63.5t51.5 179.5v566h86v-617q0 -141 -88 -216t-219 -75q-43 0 -82 5.5t-87.5 24t-83 49t-59 87.5t-24.5 133zM209 1327h170l194 -311h-94z" />
<glyph unicode="&#xfa;" horiz-adv-x="872" d="M115 276v609h184v-631q0 -96 54.5 -137t125.5 -41q90 0 141.5 63.5t51.5 179.5v566h86v-617q0 -141 -88 -216t-219 -75q-43 0 -82 5.5t-87.5 24t-83 49t-59 87.5t-24.5 133zM324 1016l194 311h170l-270 -311h-94z" />
<glyph unicode="&#xfb;" horiz-adv-x="872" d="M115 276v609h184v-631q0 -96 54.5 -137t125.5 -41q90 0 141.5 63.5t51.5 179.5v566h86v-617q0 -141 -88 -216t-219 -75q-43 0 -82 5.5t-87.5 24t-83 49t-59 87.5t-24.5 133zM160 1016l211 311h151l215 -311h-94l-194 227l-195 -227h-94z" />
<glyph unicode="&#xfc;" horiz-adv-x="872" d="M115 276v609h184v-631q0 -96 54.5 -137t125.5 -41q90 0 141.5 63.5t51.5 179.5v566h86v-617q0 -141 -88 -216t-219 -75q-43 0 -82 5.5t-87.5 24t-83 49t-59 87.5t-24.5 133zM193 1167.5q0 34.5 27.5 61t60 26.5t60.5 -26.5t28 -61t-28 -61.5t-60.5 -27t-60 27t-27.5 61.5 zM528 1167.5q0 34.5 28 61t60.5 26.5t60.5 -26.5t28 -61t-28 -61.5t-60.5 -27t-60.5 27t-28 61.5z" />
<glyph unicode="&#xfd;" horiz-adv-x="796" d="M-4 885h205l248 -641l256 641h96l-535 -1291h-94l170 402zM274 1016l195 311h170l-270 -311h-95z" />
<glyph unicode="&#xfe;" horiz-adv-x="948" d="M119 -406v1868h184v-577h113q215 0 353 -126t138 -317q0 -213 -113.5 -327.5t-310.5 -114.5h-180v-406h-184zM303 66h131q131 0 194.5 90t63.5 245q0 418 -338 418h-51v-753z" />
<glyph unicode="&#xff;" horiz-adv-x="796" d="M-4 885h205l248 -641l256 641h96l-535 -1291h-94l170 402zM143 1167.5q0 34.5 28 61t60.5 26.5t60 -26.5t27.5 -61t-27.5 -61.5t-60 -27t-60.5 27t-28 61.5zM479 1167.5q0 34.5 28 61t60.5 26.5t60 -26.5t27.5 -61t-27.5 -61.5t-60 -27t-60.5 27t-28 61.5z" />
<glyph unicode="&#x152;" horiz-adv-x="1896" d="M29 647q0 307 189.5 512t469.5 205q227 0 395 -160v123h758v-86h-532v-512h503v-86h-503v-557h544v-86h-759v121q-106 -86 -198.5 -122t-223.5 -36q-287 0 -465 196.5t-178 487.5zM297 696q0 -90 9 -172t37 -171t72 -154.5t119.5 -107.5t176.5 -42q121 0 234.5 105.5 t113.5 273.5v477q0 166 -108.5 269.5t-250.5 103.5q-111 0 -192.5 -56.5t-125.5 -147.5t-64.5 -186.5t-20.5 -191.5z" />
<glyph unicode="&#x153;" horiz-adv-x="1327" d="M18 458.5q0 190.5 119 319.5t309 129q129 0 289 -96q35 74 148 74h413v-66h-338q-37 0 -49 -10t-12 -49v-260h324v-86h-324v-295q0 -23 21.5 -38t52.5 -15h346v-66h-385q-147 0 -197 74q-98 -96 -260 -97q-195 0 -326 145.5t-131 336zM233 469q0 -86 21.5 -178t82 -170 t148.5 -78q80 0 154 66.5t74 187.5v315q0 98 -72 164t-154 66q-121 0 -187.5 -117t-66.5 -256z" />
<glyph unicode="&#x178;" horiz-adv-x="1062" d="M-25 1327h293l342 -528l351 528h149l-434 -653v-674h-250v633zM264 1583q0 35 27.5 61.5t60.5 26.5t60.5 -26.5t27.5 -61.5t-27.5 -61.5t-60.5 -26.5t-60.5 26.5t-27.5 61.5zM600 1583q0 35 27.5 61.5t60.5 26.5t60.5 -26.5t27.5 -61.5t-27.5 -61.5t-60.5 -26.5 t-60.5 26.5t-27.5 61.5z" />
<glyph unicode="&#x2c6;" horiz-adv-x="454" d="M-61 1016l211 311h151l215 -311h-94l-195 227l-194 -227h-94z" />
<glyph unicode="&#x2dc;" horiz-adv-x="454" d="M-66 1067q6 70 58.5 125t122.5 55q47 0 129 -22q84 -27 121 -27q20 0 41.5 22.5t33.5 51.5h80q-10 -76 -63.5 -130.5t-128.5 -54.5q-55 0 -115 23q-63 23 -115 23q-66 0 -88 -60z" />
<glyph unicode="&#x2000;" horiz-adv-x="937" />
<glyph unicode="&#x2001;" horiz-adv-x="1878" />
<glyph unicode="&#x2002;" horiz-adv-x="937" />
<glyph unicode="&#x2003;" horiz-adv-x="1878" />
<glyph unicode="&#x2004;" horiz-adv-x="624" />
<glyph unicode="&#x2005;" horiz-adv-x="468" />
<glyph unicode="&#x2006;" horiz-adv-x="311" />
<glyph unicode="&#x2007;" horiz-adv-x="311" />
<glyph unicode="&#x2008;" horiz-adv-x="233" />
<glyph unicode="&#x2009;" horiz-adv-x="374" />
<glyph unicode="&#x200a;" horiz-adv-x="102" />
<glyph unicode="&#x2010;" horiz-adv-x="681" d="M78 215v174l526 281v-174z" />
<glyph unicode="&#x2011;" horiz-adv-x="681" d="M78 215v174l526 281v-174z" />
<glyph unicode="&#x2012;" horiz-adv-x="681" d="M78 215v174l526 281v-174z" />
<glyph unicode="&#x2013;" horiz-adv-x="1024" d="M0 377v131h1024v-131h-1024z" />
<glyph unicode="&#x2014;" horiz-adv-x="2048" d="M0 377v131h2048v-131h-2048z" />
<glyph unicode="&#x2018;" horiz-adv-x="454" d="M94 913q0 12 5 26.5t16.5 31t19.5 28t20.5 28.5t16.5 22l231 315h21l-105 -383q-29 -109 -53 -141.5t-65 -32.5q-45 0 -76 29.5t-31 76.5z" />
<glyph unicode="&#x2019;" horiz-adv-x="454" d="M115 807l104 383q29 109 54.5 141.5t64.5 32.5q45 0 75.5 -29.5t30.5 -77.5q0 -39 -75 -135l-234 -315h-20z" />
<glyph unicode="&#x201a;" horiz-adv-x="454" d="M49 -342l103 383q29 109 53 141.5t65 32.5q47 0 78 -28.5t31 -75.5q0 -31 -78 -138l-231 -315h-21z" />
<glyph unicode="&#x201c;" horiz-adv-x="796" d="M76 913q0 12 5 26.5t16.5 31t19.5 28t20.5 28.5t16.5 22l231 315h21l-105 -383q-29 -109 -53.5 -141.5t-65.5 -32.5q-45 0 -75.5 29.5t-30.5 76.5zM455 913q0 12 5 26.5t16 31t19.5 28t20.5 28.5t16 22l232 315h20l-104 -383q-29 -109 -53.5 -141.5t-65.5 -32.5 q-45 0 -75.5 29.5t-30.5 76.5z" />
<glyph unicode="&#x201d;" horiz-adv-x="796" d="M96 807l105 383q29 109 54.5 141.5t63.5 32.5q45 0 76 -29.5t31 -77.5q0 -39 -76 -135l-233 -315h-21zM475 807l105 383q29 109 54 141.5t64 32.5q45 0 76 -29.5t31 -77.5q0 -39 -76 -135l-233 -315h-21z" />
<glyph unicode="&#x201e;" horiz-adv-x="796" d="M33 -342l102 383q29 109 53.5 141.5t65.5 32.5q47 0 77.5 -28.5t30.5 -75.5q0 -31 -77 -138l-232 -315h-20zM412 -342l102 383q29 109 53.5 141.5t65.5 32.5q47 0 77.5 -28.5t30.5 -75.5q0 -31 -77 -138l-232 -315h-20z" />
<glyph unicode="&#x2022;" horiz-adv-x="1024" d="M180 665.5q0 145.5 92.5 237.5t237.5 92t239.5 -93t94.5 -236q0 -145 -94.5 -239.5t-239.5 -94.5q-143 0 -236.5 94t-93.5 239.5z" />
<glyph unicode="&#x2026;" horiz-adv-x="2048" d="M223 96q0 49 36 84t83 35t83 -35t36 -84t-36 -84t-83 -35t-83 35t-36 84zM905 96q0 49 36 84t83 35q45 0 82 -35t37 -84q0 -47 -37 -83t-82 -36q-47 0 -83 35t-36 84zM1587 96q0 49 36 84t83 35q45 0 82 -35t37 -84q0 -47 -37 -83t-82 -36q-47 0 -83 35t-36 84z" />
<glyph unicode="&#x202f;" horiz-adv-x="374" />
<glyph unicode="&#x2039;" horiz-adv-x="569" d="M125 344v197l338 262v-187l-225 -174l225 -174v-186z" />
<glyph unicode="&#x203a;" horiz-adv-x="569" d="M106 82v186l230 174l-230 174v187l338 -262v-197z" />
<glyph unicode="&#x205f;" horiz-adv-x="468" />
<glyph unicode="&#x20ac;" d="M41 487l27 86h84q-4 57 -5 86v33h-106l27 86h88q37 246 203.5 417t410.5 171q211 0 348 -156l-33 -108q-119 172 -294 172q-131 0 -221.5 -76t-129.5 -181.5t-49 -238.5h596l-26 -86h-574v-22q0 -63 4 -97h533l-27 -86h-496q33 -184 127.5 -304t259.5 -120q84 0 164 37 t133 105v-125q-135 -117 -331 -117q-225 0 -382 149.5t-206 374.5h-125z" />
<glyph unicode="&#x2122;" horiz-adv-x="2027" d="M215 1217v110h623v-110h-250v-672h-123v672h-250zM948 545v782h209l227 -614l222 614h206v-782h-122v672h-7l-253 -672h-97l-258 672h-4v-672h-123z" />
<glyph unicode="&#xe000;" horiz-adv-x="885" d="M0 885h885v-885h-885v885z" />
<glyph unicode="&#xfb01;" horiz-adv-x="985" d="M145 0v1243q0 219 318 219h63v-86h-82q-63 0 -88.5 -39t-25.5 -86v-366h207v-86h-207v-799h-185zM637 1212.5q0 51.5 34 86t87 34.5t87 -34.5t34 -86t-34 -86t-87 -34.5t-87 34.5t-34 86zM666 0v885h184v-885h-184z" />
<glyph unicode="&#xfb02;" horiz-adv-x="985" d="M145 0v1243q0 219 318 219h63v-86h-82q-63 0 -88.5 -39t-25.5 -86v-366h207v-86h-207v-799h-185zM662 121v1341h184v-1370q0 -27 26 -26h123v-66h-211q-72 0 -97 32t-25 89z" />
<glyph unicode="&#xfb03;" horiz-adv-x="1515" d="M1167 1212.5q0 51.5 34 86t87.5 34.5t87 -34.5t33.5 -86t-33.5 -86t-87 -34.5t-87.5 34.5t-34 86zM1196 0v885h184v-885h-184zM675 0v1243q0 219 318 219h63v-86h-82q-63 0 -88.5 -39t-25.5 -86v-366h207v-86h-207v-799h-185zM145 0v1243q0 219 318 219h63v-86h-82 q-63 0 -88.5 -39t-25.5 -86v-366h207v-86h-207v-799h-185z" />
<glyph unicode="&#xfb04;" horiz-adv-x="1515" d="M1192 121v1341h184v-1370q0 -27 27 -26h123v-66h-211q-72 0 -97.5 32t-25.5 89zM675 0v1243q0 219 318 219h63v-86h-82q-63 0 -88.5 -39t-25.5 -86v-366h207v-86h-207v-799h-185zM145 0v1243q0 219 318 219h63v-86h-82q-63 0 -88.5 -39t-25.5 -86v-366h207v-86h-207v-799 h-185z" />
</font>
</defs>
</svg>
